<?xml version="1.0" encoding="UTF-8"?>
<svg width="674" height="107" xmlns="http://www.w3.org/2000/svg">

 <g>
  <title>Layer 1</title>
  <g id="svg_28">
   <path id="svg_6" d="m227.467987,0.167007l0,73.542007c0,12.000977 -12.67099,18.270996 -23.716003,18.270996c-11.307007,0 -23.847015,-6.27002 -23.847015,-18.330994l0,-73.481018l-15.22998,0l0,73.865997c0,21.529999 20.570007,32.722015 39.117981,32.722015c18.119019,0 38.905029,-11.19101 38.905029,-32.613007l0,-73.975006l-15.230011,0l0,-0.000992z" fill="#0086CB"/>
   <g id="svg_27">
    <path id="svg_5" d="m595.762024,45.365021l0,-0.015015c-0.004028,0 -0.008972,0 -0.013,0c-8.213989,0 -14.872009,-6.65799 -14.872009,-14.871002s6.65802,-14.871002 14.872009,-14.871002c0.004028,0 0.008972,0 0.013,0l0,-15.440979c-0.004028,0 -0.008972,0 -0.013,0c-16.741028,0 -30.312988,13.570984 -30.312988,30.311981c0,16.730011 13.554993,30.295013 30.281006,30.312012l0,0.014008c0.003967,0 0.008972,0 0.013,0c8.213989,0 14.872009,6.65799 14.872009,14.871002c0,8.213989 -6.65802,14.871979 -14.872009,14.871979c-0.004028,0 -0.009033,-0.000977 -0.013,-0.000977l0,15.440979c0.003967,0 0.008972,0.001007 0.013,0.001007c16.740967,0 30.312988,-13.570984 30.312988,-30.312988c0,-16.730011 -13.554993,-30.29303 -30.281006,-30.311005z" fill="#0086CB"/>
    <g id="svg_26">
     <polygon id="svg_4" points="525.0469970703125,91.968994140625 525.0469970703125,0.1670074462890625 509.3550109863281,0.1670074462890625 509.3529968261719,106.8170166015625 574.6430053710938,106.8170166015625 574.6430053710938,91.968994140625 " fill="#0086CB"/>
     <g id="svg_25">
      <polygon id="svg_3" points="444.4770202636719,0.1670074462890625 391.927978515625,106.7550048828125 408.6609802246094,106.7550048828125 444.4770202636719,33.673004150390625 480.2889709472656,106.7550048828125 497.0240173339844,106.7550048828125 " fill="#0086CB"/>
      <g id="svg_24">
       <polygon id="svg_2" points="382.8890075683594,106.56600952148438 382.8890075683594,79.78799438476562 327.24798583984375,0.1670074462890625 327.24798583984375,26.847015380859375 " fill="#0086CB"/>
       <g id="svg_23">
        <path id="svg_7" d="m284.292999,66.464996c18.227997,-3.195007 27.390991,-17.480988 27.390991,-32.509003c0,-16.841003 -11.509979,-33.789001 -34.53299,-33.789001l-17.799988,0l0,6.928009l0,8.496002l18.086975,0c0.271027,0 0.530029,0.009979 0.791016,0.018982c0.093994,-0.000977 0.184998,-0.014984 0.277985,-0.014984c9.712006,0 17.585022,8.285004 17.585022,18.505981s-7.873016,18.506012 -17.585022,18.506012c-0.100983,0 -0.198975,-0.006989 -0.299988,-0.009003l-18.855988,0l0,7.125l39.153992,47.032013l19.682983,0l-33.894989,-40.290009z" fill="#0086CB"/>
        <g id="svg_22">
         <path id="svg_1" d="m96.749001,0.167007c-29.270996,0 -53,23.728989 -53,52.999985s23.729004,53 53,53s52.999992,-23.728973 52.999992,-53s-23.728996,-52.999985 -52.999992,-52.999985zm0,91.249985c-21.125,0 -38.25,-17.125 -38.25,-38.25s17.125,-38.25 38.25,-38.25s38.249992,17.125 38.249992,38.25s-17.124992,38.25 -38.249992,38.25z" fill="#0086CB"/>
         <g id="svg_21">
          <path id="svg_8" d="m30.782997,0.167007l-15.155998,0l0,62.672012l0.005005,0.011993c-0.177002,11.536987 -6.390007,21.605988 -15.632004,27.178986l0,16.756012c17.988998,-6.744995 30.796997,-24.091003 30.796997,-44.436005c-0.000999,-0.196991 -0.014,-62.182999 -0.014,-62.182999z" fill="#0086CB"/>
          <g id="svg_9">
           <g id="svg_10">
            <path id="svg_11" d="m618.496033,11.935013c-1.419983,2.358017 -3.995972,3.690018 -7.140991,3.690018c-4.367004,0 -7.77301,-3.537018 -7.77301,-7.774017c0,-4.367004 3.559998,-7.772995 8.254028,-7.772995c4.147949,0 7.292969,2.925003 7.292969,6.505997s-2.990967,5.895996 -4.913025,5.895996c-0.960999,0 -1.527954,-0.435989 -1.724976,-1.310989l-0.044006,0c-0.85199,0.895996 -1.703003,1.310989 -2.838013,1.310989c-1.682983,0 -2.750977,-1.397995 -2.750977,-3.230988c0,-2.948013 2.138977,-5.831009 4.999023,-5.831009c1.092957,0 1.966003,0.677002 2.401001,1.660004l0.437988,-1.309998l1.395996,0l-1.965027,6.222992c-0.065979,0.240005 -0.109009,0.458008 -0.109009,0.67601c0,0.283997 0.131042,0.501999 0.480042,0.501999c1.61499,0 3.143982,-2.139999 3.143982,-4.585007c0,-3.100006 -2.312988,-5.108994 -5.807983,-5.108994c-4.018982,0 -6.768982,2.707993 -6.768982,6.375992c0,3.581009 2.66394,6.376007 6.33197,6.376007c2.685974,0 4.453979,-0.742004 5.742004,-2.292007l1.356995,0zm-6.593994,-7.206009c-1.354004,0 -3.385986,1.835007 -3.385986,4.367996c0,1.222 0.589966,2.074005 1.550964,2.074005c2.031006,0 3.559021,-2.664001 3.559021,-4.520004c0,-1.201996 -0.676025,-1.921997 -1.723999,-1.921997z" fill="#58585A"/>
           </g>
           <g id="svg_12">
            <g id="svg_13">
             <polygon id="svg_14" points="673.635009765625,14.399993896484375 669.1990356445312,14.399993896484375 669.1990356445312,4.0980072021484375 667.885009765625,4.0980072021484375 667.885009765625,15.657012939453125 673.635009765625,15.657012939453125 " fill="#58585A"/>
            </g>
            <g id="svg_15">
             <g id="svg_16">
              <path id="svg_17" d="m634.184021,10.139008c0,4.60199 -3.372009,5.71701 -5.650024,5.71701c-2.278992,0 -5.649963,-1.115997 -5.649963,-5.71701l0,-10.139008l1.541016,0l0,10.139008c0,2.54599 1.405945,4.376984 4.108948,4.376984c2.702026,0 4.109009,-1.830994 4.109009,-4.376984l0,-10.139008l1.541016,0l0,10.139008z" fill="#58585A"/>
             </g>
            </g>
            <path id="svg_18" d="m637.734009,6.74501c0,-1.251007 -0.005005,-2.546997 -0.005005,-2.546997l1.403015,0l0,1.994995l0.044983,0c0.514038,-1.272995 1.393005,-2.042007 2.845032,-2.042007c0.334961,0 0.737,0.041 0.982971,0.10701l0,1.279999c-0.291992,-0.089996 -0.669983,-0.134003 -1.028015,-0.134003c-2.231995,0 -2.835999,2.500992 -2.835999,4.556l0,5.628006l-1.406982,0l0,-8.843002z" fill="#58585A"/>
            <path id="svg_19" d="m645.134033,4.109009l2.14801,0l4.003967,9.911011l4.018005,-9.911011l2.018005,0l0,11.488007l-1.328979,0l0,-9.963013l-0.03302,0l-3.984985,9.963013l-1.359009,0l-4.119019,-9.963013l-0.031982,0l0,9.963013l-1.328979,0l0,-11.488007l-0.002014,0z" fill="#58585A"/>
            <path id="svg_20" d="m659.958008,4.109009l5.627991,0l0,1.181992l-4.299011,0l0,3.710007l4.067993,0l0,1.182007l-4.067993,0l0,4.231995l4.496033,0l0,1.182007l-5.825012,0l0,-11.488007z" fill="#58585A"/>
           </g>
          </g>
         </g>
        </g>
       </g>
      </g>
     </g>
    </g>
   </g>
  </g>
 </g>
</svg>